<?xml version="1.0" encoding="utf-8"?>
<!-- Generator: Adobe Illustrator 19.1.0, SVG Export Plug-In . SVG Version: 6.00 Build 0)  -->
<svg version="1.1" id="Layer_1" xmlns="http://www.w3.org/2000/svg" xmlns:xlink="http://www.w3.org/1999/xlink" x="0px" y="0px"
	 width="254px" height="36px" viewBox="0 0 254 36" enable-background="new 0 0 254 36" xml:space="preserve">
<g>
	<path fill="#fff" d="M8.3,35.8c-2.3,0-4.3-0.8-5.9-2.3C0.8,32,0,30.1,0,27.8v-9.3c0-2.3,0.8-4.2,2.4-5.7
		c1.6-1.5,3.6-2.3,5.9-2.3h19.6v5.9H8.3c-1.6,0-2.4,0.7-2.4,2.1v9.3c0,1.4,0.8,2.1,2.4,2.1h19.6v5.9H8.3"/>
	<polygon fill="#fff" points="57.8,35.8 57.8,26 38.5,26 38.5,35.8 32.6,35.8 32.6,10.4 38.5,10.4 38.5,20.1 57.8,20.1 
		57.8,10.4 63.8,10.4 63.8,35.8 	"/>
	<rect x="69.1" y="10.4" fill="#fff" width="5.9" height="25.4"/>
	<path fill="#fff" d="M88.2,35.8c-2.3,0-4.3-0.8-5.9-2.3c-1.6-1.5-2.4-3.4-2.4-5.8v-9.3c0-2.3,0.8-4.2,2.4-5.7
		c1.6-1.5,3.6-2.3,5.9-2.3h19.6v5.9H88.2c-1.6,0-2.4,0.7-2.4,2.1v9.3c0,1.4,0.8,2.1,2.4,2.1h19.6v5.9H88.2"/>
	<path fill="#fff" d="M136.8,18.5c0-1.4-0.8-2.1-2.4-2.1h-14.9c-1.6,0-2.4,0.7-2.4,2.1v9.3c0,1.4,0.8,2.1,2.4,2.1h14.9
		c1.6,0,2.4-0.7,2.4-2.1V18.5 M140.3,33.5c-1.6,1.5-3.6,2.3-5.9,2.3h-14.9c-2.3,0-4.3-0.8-5.9-2.3c-1.6-1.5-2.4-3.4-2.4-5.8v-9.3
		c0-2.3,0.8-4.2,2.4-5.7c1.6-1.5,3.6-2.3,5.9-2.3h14.9c2.3,0,4.2,0.8,5.9,2.3c1.6,1.5,2.4,3.4,2.4,5.7v9.3
		C142.7,30.1,141.9,32,140.3,33.5"/>
	<path fill="#fff" d="M171.3,16.3h-18.6v5.3h18.6c0.9,0,1.3-0.9,1.3-2.6C172.6,17.2,172.2,16.3,171.3,16.3 M176.7,24.8
		c-1.3,1.8-3.1,2.7-5.3,2.7h-18.6v8.3h-5.9V10.4h24.6c2.2,0,4,0.9,5.3,2.7c1.3,1.6,1.9,3.6,1.9,5.9
		C178.6,21.2,177.9,23.2,176.7,24.8"/>
	<polygon fill="#fff" points="187.8,16.3 187.8,20.1 207.6,20.1 207.6,26 187.8,26 187.8,29.9 209,29.9 209,35.8 181.9,35.8 
		181.9,10.4 209,10.4 209,16.3 	"/>
	<rect x="213.7" y="29.8" fill="#fff" width="27" height="5.9"/>
	<path fill="#fff" d="M219.7,16.3c9.7,0,18.5-4.3,20.9-10.1V0.3c-2.4,5.8-11.3,10.1-21,10.1h-5.9v5.9
		C213.7,16.3,214.8,16.3,219.7,16.3"/>
	<path fill="#fff" d="M213.7,26h6.1c4.2,0,13.4-1,19.6-4.2v-5.9c-6.2,3.2-15.5,4.2-19.6,4.2h-6.1V26"/>
	<g>
		<path fill="#fff" d="M254,4.7c0,2.4-1.9,4.3-4.4,4.3c-2.5,0-4.4-1.9-4.4-4.3c0-2.4,2-4.3,4.5-4.3C252.1,0.4,254,2.3,254,4.7z
			 M246.3,4.7c0,1.9,1.4,3.4,3.4,3.4c1.9,0,3.3-1.5,3.3-3.4c0-1.9-1.4-3.5-3.3-3.5C247.7,1.3,246.3,2.8,246.3,4.7z M248.9,6.9h-1
			V2.6c0.4-0.1,0.9-0.1,1.7-0.1c0.8,0,1.2,0.1,1.5,0.3c0.3,0.2,0.4,0.5,0.4,0.9c0,0.5-0.4,0.9-0.9,1v0.1c0.4,0.1,0.6,0.5,0.8,1.1
			c0.1,0.7,0.2,0.9,0.3,1h-1.1c-0.1-0.2-0.2-0.5-0.3-1c-0.1-0.4-0.3-0.7-0.9-0.7h-0.5V6.9z M248.9,4.5h0.5c0.6,0,1-0.2,1-0.6
			c0-0.4-0.3-0.7-0.9-0.7c-0.3,0-0.4,0-0.6,0.1V4.5z"/>
	</g>
</g>
</svg>
