<?xml version="1.0" encoding="utf-8"?>
<!-- Generator: Adobe Illustrator 16.0.0, SVG Export Plug-In . SVG Version: 6.00 Build 0)  -->
<!DOCTYPE svg PUBLIC "-//W3C//DTD SVG 1.1//EN" "http://www.w3.org/Graphics/SVG/1.1/DTD/svg11.dtd">
<svg version="1.1" id="Layer_1" xmlns="http://www.w3.org/2000/svg" xmlns:xlink="http://www.w3.org/1999/xlink" x="0px" y="0px"
	 width="40.3px" height="36px" viewBox="213.7 0 40.3 36" enable-background="new 213.7 0 40.3 36" xml:space="preserve">
<g>
	<rect x="213.7" y="29.8" fill="#FFFFFF" width="27" height="5.9"/>
	<path fill="#FFFFFF" d="M219.7,16.3c9.7,0,18.5-4.3,20.899-10.1V0.3c-2.399,5.8-11.3,10.1-21,10.1H213.7v5.9
		C213.7,16.3,214.8,16.3,219.7,16.3"/>
	<path fill="#FFFFFF" d="M213.7,26h6.1c4.2,0,13.4-1,19.601-4.2v-5.9c-6.2,3.2-15.5,4.2-19.601,4.2h-6.1V26"/>
	<g>
		<path fill="#FFFFFF" d="M254,4.7c0,2.4-1.9,4.3-4.4,4.3S245.2,7.1,245.2,4.7c0-2.4,2-4.3,4.5-4.3C252.1,0.4,254,2.3,254,4.7z
			 M246.3,4.7c0,1.9,1.4,3.4,3.4,3.4c1.899,0,3.3-1.5,3.3-3.4c0-1.9-1.4-3.5-3.3-3.5C247.7,1.3,246.3,2.8,246.3,4.7z M248.9,6.9h-1
			V2.6c0.399-0.1,0.899-0.1,1.699-0.1c0.801,0,1.2,0.1,1.5,0.3c0.301,0.2,0.4,0.5,0.4,0.9c0,0.5-0.4,0.9-0.9,1v0.1
			c0.4,0.1,0.601,0.5,0.801,1.1c0.1,0.7,0.199,0.9,0.3,1H250.6c-0.1-0.2-0.199-0.5-0.3-1c-0.1-0.4-0.3-0.7-0.899-0.7h-0.5V6.9z
			 M248.9,4.5h0.5c0.6,0,1-0.2,1-0.6s-0.301-0.7-0.9-0.7c-0.3,0-0.4,0-0.6,0.1V4.5z"/>
	</g>
</g>
</svg>
